<svg width="2665" height="487" viewBox="0 0 2665 487" fill="none" xmlns="http://www.w3.org/2000/svg">
  <path d="M708.142 390H608.889V97.105H710.144C739.224 97.105 764.204 102.969 785.084 114.696C806.059 126.328 822.172 143.061 833.423 164.894C844.673 186.728 850.299 212.852 850.299 243.266C850.299 273.776 844.626 299.996 833.28 321.925C822.029 343.854 805.773 360.682 784.512 372.409C763.345 384.136 737.889 390 708.142 390ZM661.948 344.092H705.567C725.971 344.092 742.99 340.374 756.624 332.937C770.258 325.405 780.507 314.202 787.372 299.328C794.237 284.359 797.669 265.672 797.669 243.266C797.669 220.861 794.237 202.269 787.372 187.491C780.507 172.617 770.353 161.509 756.91 154.168C743.562 146.731 726.972 143.013 707.14 143.013H661.948V344.092ZM995.673 394.29C973.649 394.29 954.628 389.714 938.61 380.561C922.688 371.313 910.436 358.251 901.856 341.375C893.275 324.404 888.984 304.429 888.984 281.452C888.984 258.855 893.275 239.024 901.856 221.957C910.532 204.795 922.64 191.447 938.181 181.913C953.722 172.283 971.981 167.468 992.956 167.468C1006.49 167.468 1019.27 169.661 1031.28 174.047C1043.39 178.338 1054.07 185.012 1063.32 194.069C1072.66 203.127 1080 214.663 1085.34 228.679C1090.68 242.599 1093.35 259.189 1093.35 278.448V294.323H913.297V259.427H1043.73C1043.63 249.511 1041.49 240.692 1037.29 232.969C1033.1 225.151 1027.23 219.002 1019.7 214.52C1012.26 210.039 1003.59 207.799 993.671 207.799C983.088 207.799 973.792 210.373 965.783 215.522C957.774 220.575 951.529 227.249 947.048 235.544C942.663 243.743 940.422 252.753 940.327 262.574V293.036C940.327 305.812 942.663 316.776 947.334 325.929C952.006 334.987 958.537 341.947 966.927 346.809C975.318 351.577 985.138 353.96 996.389 353.96C1003.92 353.96 1010.74 352.911 1016.84 350.814C1022.94 348.621 1028.23 345.427 1032.71 341.232C1037.2 337.037 1040.58 331.841 1042.87 325.643L1091.21 331.078C1088.16 343.854 1082.34 355.009 1073.76 364.543C1065.27 373.982 1054.41 381.324 1041.15 386.568C1027.9 391.716 1012.74 394.29 995.673 394.29ZM1234.4 394.29C1212.38 394.29 1193.36 389.714 1177.34 380.561C1161.42 371.313 1149.16 358.251 1140.58 341.375C1132 324.404 1127.71 304.429 1127.71 281.452C1127.71 258.855 1132 239.024 1140.58 221.957C1149.26 204.795 1161.37 191.447 1176.91 181.913C1192.45 172.283 1210.71 167.468 1231.68 167.468C1245.22 167.468 1258 169.661 1270.01 174.047C1282.12 178.338 1292.8 185.012 1302.05 194.069C1311.39 203.127 1318.73 214.663 1324.07 228.679C1329.41 242.599 1332.08 259.189 1332.08 278.448V294.323H1152.02V259.427H1282.45C1282.36 249.511 1280.21 240.692 1276.02 232.969C1271.82 225.151 1265.96 219.002 1258.43 214.52C1250.99 210.039 1242.32 207.799 1232.4 207.799C1221.82 207.799 1212.52 210.373 1204.51 215.522C1196.5 220.575 1190.26 227.249 1185.78 235.544C1181.39 243.743 1179.15 252.753 1179.05 262.574V293.036C1179.05 305.812 1181.39 316.776 1186.06 325.929C1190.73 334.987 1197.27 341.947 1205.66 346.809C1214.05 351.577 1223.87 353.96 1235.12 353.96C1242.65 353.96 1249.47 352.911 1255.57 350.814C1261.67 348.621 1266.96 345.427 1271.44 341.232C1275.92 337.037 1279.31 331.841 1281.6 325.643L1329.94 331.078C1326.88 343.854 1321.07 355.009 1312.49 364.543C1304 373.982 1293.13 381.324 1279.88 386.568C1266.63 391.716 1251.47 394.29 1234.4 394.29ZM1375.88 472.377V170.329H1426.79V206.655H1429.8C1432.47 201.315 1436.23 195.642 1441.09 189.636C1445.96 183.534 1452.54 178.338 1460.83 174.047C1469.13 169.661 1479.71 167.468 1492.58 167.468C1509.55 167.468 1524.85 171.807 1538.49 180.483C1552.22 189.064 1563.09 201.792 1571.09 218.668C1579.2 235.448 1583.25 256.042 1583.25 280.45C1583.25 304.572 1579.29 325.071 1571.38 341.947C1563.47 358.823 1552.69 371.694 1539.06 380.561C1525.43 389.428 1509.98 393.861 1492.72 393.861C1480.14 393.861 1469.7 391.764 1461.4 387.569C1453.11 383.374 1446.43 378.32 1441.38 372.409C1436.42 366.403 1432.56 360.73 1429.8 355.39H1427.65V472.377H1375.88ZM1426.65 280.164C1426.65 294.371 1428.65 306.813 1432.66 317.491C1436.76 328.17 1442.62 336.512 1450.25 342.519C1457.97 348.43 1467.31 351.386 1478.28 351.386C1489.72 351.386 1499.3 348.335 1507.02 342.233C1514.75 336.036 1520.56 327.598 1524.47 316.919C1528.48 306.145 1530.48 293.894 1530.48 280.164C1530.48 266.53 1528.52 254.422 1524.62 243.839C1520.71 233.255 1514.89 224.961 1507.17 218.954C1499.44 212.947 1489.81 209.944 1478.28 209.944C1467.22 209.944 1457.83 212.852 1450.1 218.668C1442.38 224.484 1436.52 232.636 1432.51 243.123C1428.6 253.611 1426.65 265.958 1426.65 280.164ZM1801.21 228.393L1754.01 233.541C1752.68 228.774 1750.34 224.293 1747 220.098C1743.76 215.903 1739.38 212.518 1733.85 209.944C1728.32 207.37 1721.55 206.083 1713.54 206.083C1702.76 206.083 1693.71 208.418 1686.37 213.09C1679.12 217.762 1675.54 223.816 1675.64 231.253C1675.54 237.641 1677.88 242.837 1682.65 246.842C1687.51 250.846 1695.52 254.136 1706.67 256.71L1744.14 264.719C1764.93 269.2 1780.37 276.303 1790.48 286.028C1800.68 295.753 1805.83 308.481 1805.93 324.213C1805.83 338.038 1801.78 350.242 1793.77 360.825C1785.86 371.313 1774.84 379.512 1760.73 385.424C1746.62 391.335 1730.41 394.29 1712.11 394.29C1685.22 394.29 1663.58 388.665 1647.18 377.415C1630.78 366.069 1621.01 350.289 1617.86 330.077L1668.35 325.214C1670.63 335.13 1675.5 342.614 1682.93 347.668C1690.37 352.721 1700.05 355.247 1711.96 355.247C1724.26 355.247 1734.13 352.721 1741.57 347.668C1749.1 342.614 1752.87 336.369 1752.87 328.933C1752.87 322.64 1750.44 317.444 1745.57 313.344C1740.81 309.244 1733.37 306.098 1723.26 303.905L1685.79 296.039C1664.72 291.653 1649.13 284.264 1639.03 273.872C1628.92 263.384 1623.92 250.131 1624.01 234.113C1623.92 220.575 1627.59 208.847 1635.02 198.932C1642.55 188.921 1652.99 181.198 1666.34 175.763C1679.79 170.233 1695.28 167.468 1712.82 167.468C1738.57 167.468 1758.83 172.951 1773.6 183.915C1788.48 194.88 1797.68 209.706 1801.21 228.393ZM1900.39 97.105V390H1848.62V97.105H1900.39ZM2016.84 394.433C2002.92 394.433 1990.38 391.955 1979.22 386.997C1968.16 381.943 1959.39 374.507 1952.91 364.686C1946.52 354.866 1943.33 342.757 1943.33 328.36C1943.33 315.966 1945.62 305.716 1950.19 297.612C1954.77 289.508 1961.01 283.025 1968.93 278.162C1976.84 273.3 1985.76 269.629 1995.67 267.15C2005.68 264.576 2016.03 262.717 2026.71 261.572C2039.58 260.238 2050.02 259.046 2058.03 257.997C2066.03 256.853 2071.85 255.137 2075.47 252.848C2079.19 250.465 2081.05 246.794 2081.05 241.836V240.978C2081.05 230.204 2077.86 221.862 2071.47 215.951C2065.08 210.039 2055.88 207.084 2043.87 207.084C2031.19 207.084 2021.13 209.849 2013.69 215.379C2006.35 220.908 2001.39 227.439 1998.82 234.972L1950.48 228.107C1954.29 214.759 1960.58 203.604 1969.36 194.641C1978.13 185.584 1988.85 178.814 2001.53 174.333C2014.22 169.757 2028.23 167.468 2043.58 167.468C2054.16 167.468 2064.7 168.708 2075.19 171.187C2085.68 173.666 2095.26 177.766 2103.93 183.486C2112.61 189.111 2119.57 196.787 2124.81 206.512C2130.15 216.237 2132.82 228.393 2132.82 242.98V390H2083.05V359.824H2081.34C2078.19 365.926 2073.76 371.646 2068.04 376.986C2062.41 382.23 2055.31 386.472 2046.73 389.714C2038.24 392.86 2028.28 394.433 2016.84 394.433ZM2030.28 356.391C2040.67 356.391 2049.68 354.342 2057.31 350.242C2064.94 346.047 2070.8 340.517 2074.9 333.652C2079.1 326.787 2081.19 319.303 2081.19 311.199V285.313C2079.57 286.648 2076.81 287.887 2072.9 289.031C2069.09 290.175 2064.8 291.177 2060.03 292.035C2055.26 292.893 2050.54 293.655 2045.87 294.323C2041.2 294.99 2037.15 295.562 2033.71 296.039C2025.99 297.088 2019.08 298.804 2012.98 301.188C2006.87 303.571 2002.06 306.908 1998.53 311.199C1995 315.394 1993.24 320.828 1993.24 327.502C1993.24 337.037 1996.72 344.235 2003.68 349.098C2010.64 353.96 2019.51 356.391 2030.28 356.391ZM2294.57 170.329V210.373H2168.29V170.329H2294.57ZM2199.47 117.699H2251.24V323.927C2251.24 330.887 2252.29 336.226 2254.39 339.945C2256.58 343.568 2259.44 346.047 2262.97 347.381C2266.49 348.716 2270.4 349.384 2274.69 349.384C2277.94 349.384 2280.89 349.145 2283.56 348.669C2286.33 348.192 2288.42 347.763 2289.85 347.381L2298.58 387.855C2295.81 388.808 2291.86 389.857 2286.71 391.001C2281.65 392.145 2275.46 392.813 2268.11 393.003C2255.15 393.385 2243.47 391.43 2233.08 387.14C2222.68 382.754 2214.44 375.985 2208.33 366.832C2202.33 357.679 2199.37 346.237 2199.47 332.508V117.699ZM2432.76 394.29C2410.74 394.29 2391.72 389.714 2375.7 380.561C2359.78 371.313 2347.52 358.251 2338.94 341.375C2330.36 324.404 2326.07 304.429 2326.07 281.452C2326.07 258.855 2330.36 239.024 2338.94 221.957C2347.62 204.795 2359.73 191.447 2375.27 181.913C2390.81 172.283 2409.07 167.468 2430.04 167.468C2443.58 167.468 2456.36 169.661 2468.37 174.047C2480.48 178.338 2491.16 185.012 2500.41 194.069C2509.75 203.127 2517.09 214.663 2522.43 228.679C2527.77 242.599 2530.44 259.189 2530.44 278.448V294.323H2350.38V259.427H2480.81C2480.72 249.511 2478.57 240.692 2474.38 232.969C2470.18 225.151 2464.32 219.002 2456.79 214.52C2449.35 210.039 2440.67 207.799 2430.76 207.799C2420.18 207.799 2410.88 210.373 2402.87 215.522C2394.86 220.575 2388.62 227.249 2384.14 235.544C2379.75 243.743 2377.51 252.753 2377.41 262.574V293.036C2377.41 305.812 2379.75 316.776 2384.42 325.929C2389.09 334.987 2395.62 341.947 2404.01 346.809C2412.41 351.577 2422.23 353.96 2433.48 353.96C2441.01 353.96 2447.83 352.911 2453.93 350.814C2460.03 348.621 2465.32 345.427 2469.8 341.232C2474.28 337.037 2477.67 331.841 2479.96 325.643L2528.3 331.078C2525.24 343.854 2519.43 355.009 2510.85 364.543C2502.36 373.982 2491.49 381.324 2478.24 386.568C2464.99 391.716 2449.83 394.29 2432.76 394.29ZM2606.13 393.146C2597.45 393.146 2590.02 390.095 2583.82 383.993C2577.62 377.891 2574.57 370.455 2574.67 361.683C2574.57 353.102 2577.62 345.761 2583.82 339.659C2590.02 333.557 2597.45 330.506 2606.13 330.506C2614.52 330.506 2621.82 333.557 2628.01 339.659C2634.31 345.761 2637.5 353.102 2637.59 361.683C2637.5 367.499 2635.97 372.791 2633.02 377.558C2630.16 382.325 2626.34 386.139 2621.58 388.999C2616.9 391.764 2611.76 393.146 2606.13 393.146Z" fill="black"/>
  <path d="M57.7676 191.677L247.79 347.993L338.354 286.474L352.716 276.667C353.198 276.346 381.707 256.679 403.303 229.671C417.182 210.325 425.97 187.336 427.846 163.543C429.882 136.695 421.255 108.83 402.82 88.9486C385.833 71.0502 363.326 59.1001 339.962 51.9193C305.022 40.9338 267.35 40.3979 231.661 47.7395C211.619 51.9193 192.22 58.9929 174.268 68.9067C155.941 80.053 138.471 92.5926 120.733 104.703C89.8132 126.246 60.179 146.824 29.2588 168.312L57.714 191.73L57.7676 191.677Z" fill="black"/>
  <path d="M247.79 406.993L343.338 340.866L361.29 328.38C361.397 328.326 362.79 327.308 365.202 325.486C373.079 319.431 391.674 304.319 408.179 283.902C420.987 266.325 432.455 243.175 432.401 216.702C410.376 257.697 364.88 289.046 362.362 290.761L247.79 369.535L53.6949 210.54L27.3296 228.76L77.3272 269.433L247.79 406.993Z" fill="black"/>
  <path d="M371.097 342.473L247.791 428.428L52.9985 271.844L27.2227 288.885L247.791 467.28C277.478 446.648 305.987 426.017 334.925 405.439C346.017 398.258 355.663 391.345 364.023 384.808C395.747 360.157 409.573 340.919 415.039 331.595C419.111 324.093 422.702 315.679 425.435 306.355C427.953 297.62 428.757 290.922 428.757 285.402C422.487 294.458 417.504 300.085 408.93 309.195C389.692 329.505 371.847 341.991 371.097 342.473Z" fill="black"/>
</svg>
